<svg xmlns="http://www.w3.org/2000/svg" viewBox="0 0 54 52.6">
  <style>
    .st0{fill:#fc6d26}.st1{fill:#e24329}.st2{fill:#fca326}
  </style>
  <path d="M53.502 31.2l-3-9.2-5.9-18.1c-.2-.5-.8-.8-1.3-.6-.3.1-.5.3-.6.6l-5.9 18.1h-19.6l-5.9-18.1c-.1-.6-.7-.9-1.3-.7-.3.1-.5.4-.6.7L3.502 22l-3 9.2c-.3.8 0 1.7.7 2.3l25.8 18.6 25.7-18.7c.8-.5 1.1-1.4.8-2.2" class="st0"/>
  <path d="M26.991 52.093l9.8-30.1h-19.6l9.8 30.1z" class="st1"/>
  <path d="M27.019 52.093l-9.8-30.1h-13.7l23.5 30.1z" class="st0"/>
  <path d="M3.5 21.998l-3 9.2c-.3.8 0 1.8.7 2.3l25.8 18.7-23.5-30.2z" class="st2"/>
  <path d="M3.515 22.006h13.7l-5.9-18.1c-.2-.6-.7-.9-1.3-.7-.3.1-.5.4-.6.7l-5.9 18.1z" class="st1"/>
  <path d="M27.052 52.093l9.8-30.1h13.7l-23.5 30.1z" class="st0"/>
  <path d="M50.552 21.998l3 9.2c.3.8 0 1.8-.7 2.3l-25.8 18.6 23.5-30.1z" class="st2"/>
  <path d="M50.518 22.006h-13.7l5.9-18.1c.2-.6.7-.9 1.3-.7.3.1.5.3.6.6l5.9 18.2z" class="st1"/>
</svg>
